<?xml version="1.0" standalone="no"?>
<!DOCTYPE svg PUBLIC "-//W3C//DTD SVG 20010904//EN"
 "http://www.w3.org/TR/2001/REC-SVG-20010904/DTD/svg10.dtd">
<svg version="1.0" xmlns="http://www.w3.org/2000/svg"
 width="386.000000pt" height="147.000000pt" viewBox="0 0 386.000000 147.000000"
 preserveAspectRatio="xMidYMid meet">

<g transform="translate(0.000000,147.000000) scale(0.100000,-0.100000)"
fill="#000000" stroke="none">
<path d="M230 860 l0 -269 93 -3 92 -3 3 -79 3 -78 75 81 76 81 269 0 269 0 0
270 0 270 -440 0 -440 0 0 -270z m530 135 c0 -10 -10 -15 -30 -15 -16 0 -30
-4 -30 -9 0 -25 14 -41 36 -41 15 0 24 -6 24 -15 0 -9 -9 -15 -24 -15 -16 0
-27 -7 -31 -21 -4 -11 -20 -28 -36 -38 l-28 -17 39 -39 c41 -40 48 -59 29 -71
-14 -9 -129 105 -129 128 0 14 8 18 33 18 31 0 57 14 57 32 0 4 -20 8 -45 8
-33 0 -45 4 -45 15 0 11 12 15 46 15 38 0 45 3 42 18 -2 11 -18 20 -46 26 -23
6 -42 16 -42 23 0 10 23 13 90 13 73 0 90 -3 90 -15z"/>
<path d="M2363 1020 c-38 -23 -65 -71 -61 -108 5 -41 40 -36 54 7 16 48 50 74
89 67 85 -17 86 -132 2 -154 -22 -6 -33 -15 -35 -30 -3 -17 4 -23 37 -32 44
-11 61 -33 61 -75 0 -33 -41 -75 -73 -75 -30 0 -77 36 -77 59 0 9 -6 26 -14
36 -12 16 -16 17 -30 6 -53 -44 32 -153 120 -153 105 0 172 134 104 207 l-22
23 21 29 c67 90 6 213 -104 213 -22 0 -54 -9 -72 -20z"/>
<path d="M1150 792 c0 -156 -3 -221 -12 -230 -9 -9 -86 -12 -283 -12 l-271 0
-34 -35 -34 -35 219 0 220 0 77 -82 78 -83 0 76 c0 91 -2 89 111 89 l79 0 0
265 0 265 -75 0 -75 0 0 -218z"/>
<path d="M1670 975 c-20 -25 -8 -50 25 -50 21 0 31 5 33 18 4 21 -14 47 -33
47 -7 0 -18 -7 -25 -15z"/>
<path d="M1677 874 c-4 -4 -7 -74 -7 -155 0 -113 3 -148 13 -152 33 -13 38 8
35 159 -3 125 -5 149 -18 152 -9 1 -19 0 -23 -4z"/>
<path d="M1837 873 c-4 -3 -7 -70 -7 -148 0 -110 3 -145 14 -154 11 -9 18 -8
30 4 13 13 16 38 16 115 0 107 10 130 54 130 45 0 56 -28 56 -136 0 -107 9
-131 42 -113 16 8 18 23 18 114 0 112 9 135 54 135 45 0 56 -28 56 -136 0
-107 9 -131 42 -113 16 8 18 23 18 110 0 55 -5 110 -11 122 -36 70 -96 93
-154 58 l-35 -20 -36 21 c-31 18 -42 20 -75 11 -22 -6 -42 -6 -45 -2 -6 11
-28 12 -37 2z"/>
<path d="M2656 864 c-3 -9 -6 -76 -6 -149 0 -120 2 -135 18 -144 33 -18 42 6
42 114 0 110 11 135 58 135 42 0 52 -24 52 -130 0 -77 3 -102 16 -115 12 -12
19 -13 30 -4 10 8 14 39 14 116 0 119 -12 152 -66 178 -38 18 -58 19 -87 4
-16 -9 -22 -9 -25 0 -6 17 -39 13 -46 -5z"/>
<path d="M3010 873 c-36 -14 -60 -47 -60 -83 0 -43 15 -59 81 -88 55 -23 64
-35 49 -62 -17 -31 -58 -26 -78 10 -11 21 -24 30 -37 28 -27 -4 -32 -44 -8
-70 65 -73 183 -43 183 47 0 44 -25 73 -87 100 -42 19 -54 29 -49 41 3 8 6 18
6 20 0 2 11 4 25 4 18 0 28 -7 35 -24 11 -30 23 -38 44 -30 23 9 20 49 -6 78
-23 26 -70 40 -98 29z"/>
<path d="M3290 869 c-122 -49 -135 -216 -21 -283 41 -24 110 -25 144 -3 22 14
25 14 41 -5 14 -16 20 -17 32 -8 11 10 14 43 14 155 0 123 -2 144 -16 149 -9
4 -25 0 -34 -9 -15 -14 -20 -14 -46 0 -33 17 -77 18 -114 4z m121 -78 c55 -55
30 -148 -45 -167 -95 -24 -160 102 -87 168 43 39 92 38 132 -1z"/>
<path d="M1663 265 c0 -27 2 -38 4 -22 2 15 2 37 0 50 -2 12 -4 0 -4 -28z"/>
<path d="M1690 265 c0 -25 5 -45 10 -45 6 0 10 15 10 33 l0 32 21 -32 c29 -45
39 -41 37 15 -1 45 -2 45 -5 8 l-4 -39 -25 37 c-14 20 -29 36 -34 36 -6 0 -10
-20 -10 -45z"/>
<path d="M1793 303 c12 -3 17 -15 17 -44 0 -21 5 -39 10 -39 6 0 10 18 10 39
0 29 5 41 18 44 9 3 -3 5 -28 5 -25 0 -37 -2 -27 -5z"/>
<path d="M1870 265 c0 -44 0 -45 33 -44 30 2 30 2 5 6 -16 2 -28 10 -28 18 0
8 12 16 28 18 l27 4 -27 2 c-17 0 -28 7 -28 15 0 8 12 17 28 19 25 4 25 4 -5
6 -33 1 -33 0 -33 -44z"/>
<path d="M1951 263 c1 -37 3 -42 8 -23 l7 25 15 -22 c17 -27 34 -31 20 -5 -7
13 -7 22 1 30 17 17 1 42 -27 42 -23 0 -25 -3 -24 -47z m39 22 c0 -8 -7 -15
-15 -15 -8 0 -15 7 -15 15 0 8 7 15 15 15 8 0 15 -7 15 -15z"/>
<path d="M2040 273 c-8 -21 -17 -42 -19 -48 -2 -5 2 -4 10 3 16 14 59 16 59 2
0 -5 4 -10 10 -10 11 0 -23 83 -36 87 -5 2 -16 -14 -24 -34z m28 -22 c-15 -5
-19 4 -11 24 6 18 7 18 13 -1 4 -10 3 -21 -2 -23z"/>
<path d="M2125 286 c-13 -19 -14 -29 -6 -45 12 -22 45 -36 61 -26 19 11 10 22
-14 18 -29 -6 -40 10 -31 44 5 20 11 24 30 20 14 -2 25 0 25 4 0 20 -50 8 -65
-15z"/>
<path d="M2213 303 c12 -3 17 -15 17 -44 0 -21 5 -39 10 -39 6 0 10 18 10 39
0 29 5 41 18 44 9 3 -3 5 -28 5 -25 0 -37 -2 -27 -5z"/>
<path d="M2293 265 c0 -27 2 -38 4 -22 2 15 2 37 0 50 -2 12 -4 0 -4 -28z"/>
<path d="M2315 293 c4 -10 12 -30 17 -45 5 -16 14 -28 18 -28 10 0 43 81 35
88 -2 3 -10 -9 -16 -26 -14 -40 -26 -41 -34 -2 -4 17 -11 30 -17 30 -6 0 -7
-8 -3 -17z"/>
<path d="M2400 265 c0 -44 0 -45 33 -44 23 1 26 3 10 6 -13 2 -23 11 -23 18 0
7 10 16 23 18 l22 4 -22 2 c-13 0 -23 7 -23 15 0 8 10 17 23 19 16 3 13 5 -10
6 -33 1 -33 0 -33 -44z"/>
<path d="M2517 303 c-14 -14 -6 -34 18 -43 33 -13 32 -30 -2 -30 -20 0 -24 -3
-16 -11 16 -16 53 -1 53 21 0 11 -9 24 -20 30 -26 14 -25 28 3 33 20 4 20 4
-4 6 -14 0 -29 -2 -32 -6z"/>
<path d="M2591 263 c2 -46 2 -46 8 -13 l6 35 12 -32 c15 -40 26 -42 40 -5 l11
27 1 -27 c2 -47 21 -31 21 17 0 53 -13 58 -36 13 l-17 -33 -15 33 c-22 45 -32
40 -31 -15z"/>
<path d="M2707 303 c-14 -14 -6 -34 18 -43 33 -13 32 -30 -2 -30 -23 -1 -25
-2 -11 -10 9 -6 23 -7 32 -4 22 9 20 41 -4 54 -11 6 -20 16 -20 22 0 5 9 8 20
5 11 -3 20 -1 20 4 0 10 -43 12 -53 2z"/>
</g>
</svg>
